<svg enable-background="new 0 0 135 135" height="135" viewBox="0 0 135 135" width="135" xmlns="http://www.w3.org/2000/svg"><circle cx="67.5" cy="67.499" fill="#ff1a1a" r="61.667"/><ellipse cx="67.5" cy="67.499" fill="#d60909" rx="61.667" ry="47.232"/><path d="m5.833 67.499c0 34.061 27.609 61.668 61.667 61.668s61.667-27.607 61.667-61.668z" fill="#fff"/><path d="m67.5 114.731c34.058 0 61.667-21.148 61.667-47.232h-123.334c0 26.084 27.609 47.232 61.667 47.232z" fill="#d8e5ea"/><path d="m67.5 130.667c-34.831 0-63.167-28.337-63.167-63.168 0-34.83 28.336-63.166 63.167-63.166s63.167 28.336 63.167 63.166c0 34.831-28.336 63.168-63.167 63.168zm0-123.334c-33.176 0-60.167 26.99-60.167 60.166 0 33.177 26.991 60.168 60.167 60.168s60.167-26.991 60.167-60.168c0-33.176-26.991-60.166-60.167-60.166z" fill="#33363a"/><path d="m129.167 68.999h-123.334c-.829 0-1.5-.671-1.5-1.5s.671-1.5 1.5-1.5h123.334c.829 0 1.5.671 1.5 1.5s-.671 1.5-1.5 1.5z" fill="#33363a"/><circle cx="67.5" cy="73.201" fill="#a7bbc1" r="16.764"/><circle cx="67.5" cy="67.5" fill="#fff" r="16.764"/><path d="m55.646 79.354c-6.547-6.547-6.546-17.16 0-23.709 6.547-6.546 17.161-6.546 23.707 0" fill="#d8e5ea"/><path d="m67.5 85.765c-4.878 0-9.465-1.9-12.915-5.35-7.12-7.12-7.12-18.707 0-25.83 3.45-3.449 8.037-5.349 12.915-5.349s9.464 1.899 12.914 5.349c3.45 3.451 5.351 8.038 5.351 12.916s-1.9 9.464-5.351 12.914c-3.449 3.45-8.035 5.35-12.914 5.35zm0-33.529c-4.077 0-7.91 1.587-10.793 4.47-5.95 5.953-5.95 15.637 0 21.588 2.883 2.883 6.716 4.471 10.793 4.471s7.91-1.588 10.792-4.471c2.883-2.883 4.472-6.716 4.472-10.793s-1.588-7.911-4.472-10.795c-2.882-2.882-6.714-4.47-10.792-4.47z" fill="#33363a"/><path d="m73.204 73.203c-3.149 3.146-8.257 3.146-11.404 0-3.149-3.15-3.148-8.255 0-11.403 3.148-3.15 8.255-3.148 11.403 0s3.149 8.253.001 11.403z" fill="#fff"/><path d="m61.8 61.8c3.148-3.15 8.255-3.148 11.403 0s3.148 8.253.001 11.403" fill="#d8e5ea"/><path d="m67.501 77.062c-2.555 0-4.957-.994-6.762-2.798-3.729-3.73-3.729-9.797 0-13.525 1.805-1.807 4.207-2.802 6.761-2.802s4.957.995 6.763 2.802c3.728 3.727 3.728 9.794.001 13.524-1.806 1.806-4.208 2.799-6.763 2.799zm-.001-16.124c-1.753 0-3.401.683-4.64 1.923-2.559 2.559-2.559 6.723 0 9.282 1.238 1.238 2.887 1.919 4.641 1.919s3.403-.682 4.643-1.92c2.557-2.559 2.557-6.723-.001-9.281-1.241-1.24-2.889-1.923-4.643-1.923z" fill="#33363a"/></svg>